<?xml version="1.0" standalone="no"?>
<!DOCTYPE svg PUBLIC "-//W3C//DTD SVG 20010904//EN"
 "http://www.w3.org/TR/2001/REC-SVG-20010904/DTD/svg10.dtd">
<svg version="1.0" xmlns="http://www.w3.org/2000/svg"
 width="1500.000000pt" height="609.000000pt" viewBox="0 0 1500.000000 609.000000"
 preserveAspectRatio="xMidYMid meet">

<g transform="translate(0.000000,609.000000) scale(0.100000,-0.100000)"
fill="#000000" stroke="none">
<path d="M1914 4228 c-103 -112 -205 -222 -227 -244 l-39 -41 55 -52 c177
-167 181 -418 13 -736 -29 -55 -74 -133 -101 -173 -112 -175 -166 -345 -166
-532 0 -299 125 -564 338 -716 138 -99 307 -153 559 -179 166 -17 258 -37 381
-84 86 -34 227 -117 295 -175 l40 -35 77 59 c187 143 359 206 641 235 170 18
253 35 360 74 208 76 344 199 440 396 64 130 90 232 97 372 11 226 -37 384
-191 628 -127 200 -185 355 -193 511 -8 158 25 249 131 353 l54 54 -226 244
c-124 134 -231 242 -236 239 -6 -3 -60 -27 -121 -54 -261 -118 -566 -171 -915
-159 -318 11 -583 72 -810 187 -33 17 -61 30 -64 30 -2 0 -89 -91 -192 -202z
m317 83 c256 -109 489 -152 829 -154 242 -1 421 22 640 79 18 5 -1646 -1081
-2045 -1334 l-39 -25 15 24 c178 274 256 461 266 639 9 153 -27 257 -124 361
l-43 46 191 207 c105 113 192 206 194 206 1 0 54 -22 116 -49z m1627 -222 l3
-76 -70 -46 c-39 -26 -73 -47 -76 -47 -3 0 -5 7 -5 15 0 25 -23 16 -87 -36
l-63 -49 0 -124 c0 -125 4 -156 21 -156 5 0 32 15 59 33 l50 32 0 65 0 66 85
52 85 52 0 -111 c0 -154 -6 -164 -144 -254 -285 -184 -306 -193 -327 -138 -5
13 -9 123 -9 245 0 180 3 226 16 254 12 26 60 62 222 169 114 74 213 134 222
133 11 -3 16 -21 18 -79z m252 -259 l0 -69 -60 -41 c-92 -63 -90 -63 -90 17
l0 69 73 47 c39 25 73 47 75 47 1 0 2 -31 2 -70z m-1020 -210 l0 -69 -52 -34
c-36 -23 -58 -32 -69 -26 -10 5 -35 -5 -77 -33 l-62 -41 0 -58 0 -59 50 28
c36 19 50 33 50 49 0 19 22 40 68 67 9 6 12 -18 12 -106 l0 -113 -43 -27 -42
-27 -3 34 -3 35 -45 -30 -44 -31 0 -64 c0 -36 2 -65 6 -65 3 0 22 11 42 25
l37 25 3 -52 c2 -35 -1 -54 -10 -59 -7 -4 -80 -50 -163 -103 -161 -102 -163
-102 -164 -29 -1 25 6 35 34 53 l35 22 0 183 0 184 -35 -20 -35 -21 0 54 0 54
223 144 c122 79 233 152 246 162 13 10 28 18 32 18 5 0 9 -31 9 -70z m1021
-957 c-1 -538 -5 -981 -9 -985 -14 -13 -158 -48 -224 -55 l-68 -6 0 920 0 920
148 96 c81 52 149 93 151 92 2 -2 2 -444 2 -982z m-831 638 l0 -68 -52 -35
c-103 -68 -98 -69 -98 11 l0 69 73 46 c39 25 73 46 75 46 1 0 2 -31 2 -69z
m228 -1306 l-3 -426 -60 -20 c-33 -11 -96 -38 -140 -60 -45 -21 -84 -39 -88
-39 -4 0 -7 364 -7 809 l0 809 148 96 147 95 3 -419 c1 -230 1 -610 0 -845z
m-1280 1103 c7 -7 12 -38 12 -72 l-1 -61 -77 -47 c-74 -44 -77 -45 -82 -25 -9
33 -30 30 -90 -11 -51 -34 -55 -40 -58 -81 -2 -24 1 -48 7 -54 6 -6 38 8 93
41 109 67 139 78 175 60 28 -13 28 -13 31 -128 1 -65 -2 -125 -8 -140 -7 -17
-71 -65 -198 -147 -103 -67 -200 -127 -216 -134 -42 -20 -56 6 -56 102 l0 78
83 51 82 51 3 -46 c2 -25 7 -45 13 -45 5 0 38 19 74 43 l65 42 0 63 c0 87 -12
87 -157 -4 -153 -96 -163 -91 -163 74 0 62 5 122 10 133 12 21 17 25 254 171
88 54 167 98 176 98 9 0 21 -5 28 -12z m2247 -163 c58 -93 107 -208 130 -305
37 -157 17 -366 -50 -531 -27 -68 -94 -176 -126 -204 -19 -18 -19 -15 -19 554
0 344 4 570 10 566 5 -3 30 -39 55 -80z m-1565 -775 c0 -387 -2 -705 -4 -707
-2 -3 -35 11 -72 30 -38 19 -104 47 -147 62 l-77 28 2 555 3 556 144 93 c80
51 146 91 148 89 2 -2 3 -320 3 -706z m-430 623 l0 -68 -58 -37 c-93 -60 -92
-60 -92 16 l0 66 67 45 c37 25 71 45 75 45 5 0 8 -30 8 -67z m-170 -734 l0
-432 -62 7 c-35 3 -101 16 -148 29 l-85 22 -3 308 -2 307 142 94 c79 52 146
95 151 95 4 1 7 -193 7 -430z m-600 -66 c0 -63 -4 -103 -9 -97 -21 22 -91 128
-91 138 0 11 77 66 93 66 4 0 7 -48 7 -107z"/>
<path d="M2225 4167 c-92 -31 -167 -95 -214 -182 -23 -45 -26 -61 -26 -155 0
-94 3 -110 27 -155 32 -62 113 -139 176 -168 37 -17 66 -22 137 -22 78 0 98 4
145 27 271 133 272 511 2 636 -67 31 -182 40 -247 19z m192 -34 c18 -7 47 -65
68 -137 21 -72 16 -154 -12 -216 l-21 -45 -1 71 c-1 111 -35 205 -106 299
l-37 48 47 -8 c26 -3 54 -9 62 -12z m-117 -25 c69 -75 125 -227 118 -319 -2
-36 -8 -46 -33 -60 -27 -15 -35 -15 -76 -3 -59 18 -131 81 -158 139 -12 25
-26 78 -32 117 l-10 73 35 31 c33 28 80 50 114 53 7 1 26 -14 42 -31z m235
-39 c39 -34 81 -100 94 -147 10 -34 -19 -109 -58 -149 -19 -20 -81 -59 -81
-51 0 2 9 27 21 57 32 86 25 212 -17 294 -19 36 -3 34 41 -4z m-417 -221 c26
-64 142 -157 199 -159 13 0 11 -3 -7 -11 -57 -23 -219 16 -274 67 -22 20 -26
33 -26 79 0 58 21 133 48 174 16 24 16 24 33 -49 9 -41 21 -86 27 -101z m517
-85 c-8 -41 -39 -108 -56 -118 -12 -8 -99 22 -99 34 0 4 18 13 40 20 25 7 52
27 77 56 21 24 40 44 42 45 2 0 0 -17 -4 -37z m-175 -57 c0 -19 -21 -35 -57
-42 -41 -8 -49 10 -17 35 30 24 74 28 74 7z m-208 -61 c54 0 98 -1 98 -3 0 -2
-19 -12 -42 -22 -30 -14 -66 -20 -119 -20 -69 0 -77 2 -101 28 -14 15 -31 37
-37 49 -11 21 -10 21 46 -5 51 -24 70 -27 155 -27z m252 -19 l48 -23 -28 -20
c-31 -22 -89 -53 -99 -53 -3 0 -1 9 5 19 5 11 10 38 10 60 0 23 3 41 8 41 4 0
29 -11 56 -24z m-97 -28 c-4 -29 -14 -50 -32 -66 -23 -19 -34 -22 -78 -16 -29
4 -70 14 -92 23 l-40 17 63 7 c63 7 128 33 151 61 24 28 34 18 28 -26z"/>
<path d="M5750 4384 c-224 -50 -401 -163 -502 -318 -123 -191 -112 -489 25
-668 20 -26 33 -49 29 -51 -4 -3 -27 -8 -52 -12 -91 -15 -150 -67 -165 -145
-15 -80 51 -255 132 -350 141 -168 335 -262 597 -290 221 -24 487 35 638 142
l28 19 11 -28 c5 -15 22 -41 37 -57 49 -52 72 -56 312 -56 200 0 224 2 260 20
52 27 74 60 104 163 13 48 28 91 31 97 3 5 35 10 70 10 l64 0 31 -100 c34
-111 69 -162 123 -179 22 -8 203 -10 553 -9 l521 3 36 28 c60 46 67 68 67 227
0 84 4 139 9 135 5 -3 53 -78 107 -166 54 -88 110 -171 126 -184 48 -40 93
-46 328 -43 240 3 244 4 294 72 20 27 21 40 24 532 l3 505 47 -3 47 -3 5 -502
c5 -487 6 -502 26 -529 51 -69 50 -69 327 -72 139 -2 267 0 285 3 40 7 101 59
118 102 11 26 14 133 14 518 0 455 1 485 18 485 16 0 17 -16 17 -202 0 -163 4
-216 18 -268 64 -235 185 -406 372 -526 349 -223 866 -157 1121 142 l46 54 37
-46 c82 -105 257 -212 416 -254 252 -65 510 -42 730 65 147 71 246 168 310
300 42 88 56 156 56 267 0 169 -55 310 -162 416 l-59 58 54 17 c64 20 110 67
126 126 13 48 7 77 -30 153 -96 196 -270 334 -495 394 -56 15 -104 19 -235 18
-150 0 -173 -3 -255 -28 -198 -61 -371 -187 -444 -324 -12 -22 -14 -21 -67 48
-72 92 -158 161 -269 216 -139 69 -222 87 -395 88 -116 0 -162 -4 -232 -22
-138 -34 -262 -97 -345 -175 l-33 -31 0 35 c-1 68 -52 145 -113 168 -20 8
-282 11 -825 11 -749 -1 -798 -2 -837 -19 -23 -10 -53 -34 -66 -52 -21 -30
-24 -47 -27 -136 -2 -57 -7 -103 -10 -103 -4 0 -40 57 -81 126 -46 77 -88 136
-109 152 l-35 27 -260 3 c-246 3 -261 2 -302 -18 -27 -13 -54 -36 -67 -58 -23
-37 -23 -42 -28 -436 l-5 -398 -125 403 c-69 222 -134 416 -145 433 -11 16
-33 39 -48 50 -27 20 -40 21 -327 21 -286 0 -300 -1 -326 -21 -15 -11 -36 -32
-47 -46 -10 -13 -76 -207 -146 -429 -70 -222 -130 -410 -132 -418 -3 -8 -18
11 -35 44 -16 33 -57 86 -91 120 l-62 62 54 17 c95 30 151 122 126 208 -29 99
-121 230 -218 311 -68 56 -210 128 -303 152 -91 24 -333 29 -420 9z m353 -170
c109 -24 208 -75 285 -149 69 -65 138 -165 129 -188 -4 -11 -324 -117 -352
-117 -6 0 -20 18 -33 40 -56 98 -245 131 -336 59 -38 -30 -33 -75 10 -104 18
-13 121 -44 240 -74 237 -60 313 -93 395 -168 95 -88 135 -216 117 -372 -26
-221 -238 -387 -541 -420 -315 -35 -617 96 -721 313 -41 85 -51 122 -33 129
41 15 401 79 404 71 40 -114 191 -191 321 -165 65 13 116 40 120 65 14 69 -30
93 -297 166 -203 55 -294 97 -371 169 -58 55 -85 111 -101 210 -28 186 41 337
205 442 148 97 374 134 559 93z m5465 -14 c296 -83 471 -326 489 -675 23 -464
-240 -783 -662 -802 -338 -16 -605 172 -707 497 -20 66 -23 94 -23 245 0 198
11 249 81 394 76 155 212 277 370 330 134 45 316 49 452 11z m1405 14 c110
-24 208 -75 286 -149 69 -65 141 -179 125 -195 -9 -8 -333 -110 -350 -110 -5
0 -19 17 -31 38 -14 25 -40 48 -75 67 -45 25 -64 29 -128 30 -114 0 -181 -42
-160 -100 14 -39 69 -62 276 -114 237 -60 313 -93 395 -168 80 -74 111 -147
117 -275 5 -111 -6 -166 -49 -243 -147 -262 -604 -361 -952 -207 -92 41 -194
125 -241 201 -27 42 -70 160 -62 168 6 6 374 83 397 83 10 0 20 -11 23 -26 11
-42 87 -109 147 -130 165 -56 359 27 266 114 -32 30 -71 45 -277 102 -210 58
-301 100 -376 175 -75 74 -97 139 -98 280 -1 99 2 116 26 167 65 140 222 251
413 293 84 19 242 18 328 -1z m-5164 -721 c123 -394 226 -725 229 -735 4 -17
-9 -18 -225 -18 l-229 0 -44 145 -44 145 -195 -2 -195 -3 -41 -140 -41 -140
-187 -3 c-148 -2 -186 0 -182 10 3 7 63 198 133 423 71 226 174 551 228 723
l98 312 236 0 235 0 224 -717z m1031 308 c135 -225 246 -405 248 -401 2 5 -4
83 -12 173 -9 96 -16 263 -16 401 l0 236 180 0 180 0 0 -735 0 -735 -184 0
-184 0 -155 253 c-197 320 -245 402 -329 562 -38 72 -67 121 -64 110 22 -79
26 -170 26 -526 l0 -399 -180 0 -180 0 0 735 0 735 213 0 212 0 245 -409z
m1750 229 l0 -180 -150 0 -150 0 0 -555 0 -555 -215 0 -215 0 0 555 0 555
-155 0 -155 0 0 180 0 180 520 0 520 0 0 -180z"/>
<path d="M11269 3867 c-49 -33 -94 -105 -110 -178 -22 -99 -19 -366 5 -452 35
-127 116 -197 214 -183 92 12 145 71 179 196 24 91 24 339 0 429 -24 87 -65
161 -106 188 -47 32 -135 32 -182 0z m117 -210 c38 -110 15 -449 -29 -434 -51
16 -64 390 -16 480 14 25 25 14 45 -46z"/>
<path d="M7246 3563 c-31 -109 -56 -202 -56 -206 0 -4 52 -7 116 -7 105 0 115
2 110 18 -3 9 -28 100 -57 202 -28 102 -52 186 -54 188 -1 1 -27 -87 -59 -195z"/>
<path d="M5100 2215 l0 -65 4233 2 4232 3 1 63 2 62 -4234 0 -4234 0 0 -65z"/>
<path d="M8770 1875 c-164 -46 -237 -149 -228 -324 5 -103 26 -150 93 -209 58
-51 117 -72 226 -79 167 -11 302 40 362 138 60 97 59 251 -1 348 -30 50 -102
104 -160 122 -63 19 -230 21 -292 4z m234 -128 c59 -33 81 -84 81 -184 0 -67
-4 -87 -21 -109 -40 -54 -70 -68 -148 -72 -115 -6 -170 30 -196 128 -25 92 8
189 79 237 47 32 149 32 205 0z"/>
<path d="M10490 1881 c-104 -19 -173 -65 -215 -143 -37 -67 -46 -194 -21 -279
36 -125 159 -199 329 -199 159 0 270 72 291 188 l6 32 -88 0 c-87 0 -88 0 -99
-29 -15 -42 -52 -62 -114 -62 -62 -1 -96 10 -122 39 -65 72 -61 240 8 301 66
58 198 47 227 -20 13 -29 13 -29 100 -29 l87 0 -14 47 c-20 67 -43 94 -106
126 -44 22 -73 29 -140 32 -46 2 -104 0 -129 -4z"/>
<path d="M5160 1591 c0 -158 2 -295 6 -305 5 -13 21 -16 85 -16 l79 0 0 115 0
115 165 0 165 0 0 65 0 65 -165 0 -165 0 0 60 0 60 175 0 175 0 0 65 0 65
-259 0 -260 0 -1 -289z"/>
<path d="M5772 1663 c5 -243 14 -282 77 -336 92 -77 343 -87 466 -18 40 22 56
40 80 86 l30 59 3 213 4 213 -91 0 -91 0 0 -192 c0 -164 -3 -198 -18 -228 -46
-93 -218 -93 -264 0 -15 30 -18 64 -18 228 l0 192 -91 0 -91 0 4 -217z"/>
<path d="M6510 1815 l0 -65 115 0 115 0 0 -240 0 -240 85 0 85 0 0 240 0 240
115 0 115 0 0 65 0 65 -315 0 -315 0 0 -65z"/>
<path d="M7230 1575 l0 -305 260 0 260 0 0 65 0 65 -180 0 -180 0 0 60 0 60
170 0 170 0 0 60 0 60 -167 2 -168 3 -3 53 -3 52 175 0 176 0 0 65 0 65 -255
0 -255 0 0 -305z"/>
<path d="M7850 1575 l0 -307 228 5 c142 2 242 9 267 17 56 17 102 69 110 124
13 82 -23 142 -99 166 l-38 12 40 18 c52 23 74 57 74 115 0 59 -26 102 -77
129 -37 19 -59 21 -272 24 l-233 4 0 -307z m384 169 c21 -21 20 -67 -1 -86
-12 -11 -50 -18 -115 -23 l-98 -7 0 66 0 66 99 0 c77 0 103 -4 115 -16z m25
-238 c27 -24 27 -68 0 -92 -17 -16 -40 -20 -130 -22 l-109 -4 0 72 0 72 109
-4 c90 -3 113 -7 130 -22z"/>
<path d="M9380 1875 c0 -3 0 -139 0 -302 l-1 -298 246 -3 245 -2 0 65 0 65
-160 0 -160 0 0 240 0 240 -85 0 c-47 0 -85 -2 -85 -5z"/>
<path d="M10980 1575 l0 -305 245 0 245 0 0 65 0 65 -160 0 -160 0 0 240 0
240 -85 0 -85 0 0 -305z"/>
<path d="M11532 1658 c5 -237 9 -261 56 -311 41 -43 94 -67 182 -79 95 -14
228 0 288 31 50 26 98 81 111 128 6 21 11 131 11 246 l0 207 -85 0 -85 0 -1
-187 c0 -119 -5 -201 -12 -222 -18 -51 -56 -74 -130 -79 -53 -3 -67 0 -97 20
-57 38 -60 52 -60 271 l0 197 -91 0 -91 0 4 -222z"/>
<path d="M12320 1576 l0 -306 188 0 c103 0 216 5 252 11 115 18 164 68 164
166 0 68 -24 101 -95 130 -30 12 -46 23 -36 23 32 0 76 29 92 60 35 68 8 157
-59 193 -38 20 -57 22 -273 25 l-233 4 0 -306z m382 167 c26 -23 23 -69 -4
-87 -14 -9 -61 -17 -115 -21 l-93 -6 0 68 0 68 97 -3 c72 -2 103 -8 115 -19z
m27 -237 c27 -24 27 -68 0 -92 -17 -16 -40 -20 -130 -22 l-109 -4 0 72 0 72
109 -4 c90 -3 113 -7 130 -22z"/>
<path d="M13040 1575 l0 -305 260 0 260 0 0 65 0 65 -180 0 -180 0 0 60 0 60
170 0 170 0 0 60 0 60 -167 2 -168 3 -3 53 -3 52 175 0 176 0 0 65 0 65 -255
0 -255 0 0 -305z"/>
</g>
</svg>
